<svg viewBox="0 0 16 16" fill="none" xmlns="http://www.w3.org/2000/svg" style="display: block;">
<path d="M15.85 6.04C14.79 6.06 13.76 5.53 13.19 4.55C12.63 3.57 12.69 2.41 13.23 1.51C12.47 0.85 11.58 0.33 10.61 0C10.1 0.92 9.13 1.55 8 1.55C6.87 1.55 5.9 0.92 5.39 0C4.42 0.34 3.53 0.85 2.77 1.51C3.31 2.41 3.37 3.57 2.81 4.55C2.24 5.53 1.21 6.06 0.15 6.04C0.06 6.53 0 7.04 0 7.55C0 8.06 0.05 8.57 0.15 9.06C1.21 9.04 2.24 9.57 2.81 10.55C3.37 11.53 3.31 12.69 2.77 13.59C3.53 14.25 4.42 14.77 5.39 15.1C5.9 14.18 6.87 13.55 8 13.55C9.13 13.55 10.1 14.18 10.61 15.1C11.58 14.76 12.47 14.25 13.23 13.59C12.69 12.69 12.63 11.53 13.19 10.55C13.76 9.57 14.79 9.04 15.85 9.06C15.94 8.57 16 8.06 16 7.55C16 7.04 15.95 6.53 15.85 6.04ZM8 11.55C5.79 11.55 4 9.76 4 7.55C4 5.34 5.79 3.55 8 3.55C10.21 3.55 12 5.34 12 7.55C12 9.76 10.21 11.55 8 11.55Z" fill="currentColor"/>
</svg>
