<svg viewBox="0 0 13 13" fill="none" xmlns="http://www.w3.org/2000/svg">
<path d="M10.3889 0.489592L6.49982 4.37868L2.61073 0.489592C2.02383 -0.0973061 1.07631 -0.0973061 0.489411 0.489592C-0.0974871 1.07649 -0.0974872 2.02401 0.489411 2.61091L4.3785 6.5L0.489411 10.3891C-0.0974872 10.976 -0.0974871 11.9235 0.489411 12.5104C1.07631 13.0973 2.02383 13.0973 2.61073 12.5104L6.49982 8.62132L10.3889 12.5104C10.9758 13.0973 11.9233 13.0973 12.5102 12.5104C13.0971 11.9235 13.0971 10.976 12.5102 10.3891L8.62114 6.5L12.5102 2.61091C13.0971 2.02401 13.0971 1.07649 12.5102 0.489592C11.9233 -0.0973061 10.9758 -0.0973061 10.3889 0.489592Z" fill="#B8B8B8"/>
</svg>
