<svg viewBox="0 0 11 11" fill="none" xmlns="http://www.w3.org/2000/svg" style="display: block;">
<path d="M9.32609 2.89783H4.06522C3.66826 2.89783 3.34783 3.21715 3.34783 3.61273C3.34783 4.00831 3.66826 4.32764 4.06522 4.32764H9.32609C9.45522 4.32764 9.56522 4.43726 9.56522 4.56594V9.33197C9.56522 9.46065 9.45522 9.57027 9.32609 9.57027H1.67391C1.54478 9.57027 1.43478 9.46065 1.43478 9.33197V3.13613C1.43478 3.00745 1.54478 2.89783 1.67391 2.89783C1.72174 2.89783 1.76957 2.89783 1.81261 2.88353L8.99609 1.45372C9.21609 1.40606 9.43609 1.44419 9.51261 1.50615C9.55565 1.54427 9.56522 1.63483 9.56522 1.70632C9.56522 2.1019 9.88565 2.42122 10.2826 2.42122C10.6796 2.42122 11 2.1019 11 1.70632C11 1.01048 10.6796 0.610132 10.4165 0.390895C9.77565 -0.123836 8.93869 8.03704e-05 8.70913 0.0525067L1.59261 1.46802C0.707826 1.51091 0 2.24011 0 3.13613V9.33197C0 10.2518 0.75087 11.0001 1.67391 11.0001H9.32609C10.2491 11.0001 11 10.2518 11 9.33197V4.56594C11 3.64609 10.2491 2.89783 9.32609 2.89783ZM8.6087 6.94895C8.6087 6.29124 8.07304 5.75745 7.41304 5.75745C6.75304 5.75745 6.21739 6.29124 6.21739 6.94895C6.21739 7.60667 6.75304 8.14046 7.41304 8.14046C8.07304 8.14046 8.6087 7.60667 8.6087 6.94895ZM7.17391 6.94895C7.17391 6.8155 7.27913 6.71065 7.41304 6.71065C7.54696 6.71065 7.65217 6.8155 7.65217 6.94895C7.65217 7.0824 7.54696 7.18725 7.41304 7.18725C7.27913 7.18725 7.17391 7.0824 7.17391 6.94895Z" fill="currentColor"/>
</svg>
