<svg viewBox="0 0 20 20" fill="none" xmlns="http://www.w3.org/2000/svg">
<path d="M10 0C4.48 0 0 4.48 0 10C0 15.52 4.48 20 10 20C15.52 20 20 15.52 20 10C20 4.48 15.52 0 10 0ZM11.3 3L11 12.58H8.84L8.56 3H11.3ZM11.11 16.7C10.81 16.99 10.43 17.14 9.98 17.14C9.5 17.14 9.11 16.99 8.81 16.7C8.51 16.41 8.36 16.05 8.36 15.64C8.36 15.23 8.51 14.85 8.81 14.56C9.11 14.27 9.5 14.12 9.98 14.12C10.43 14.12 10.81 14.27 11.11 14.56C11.41 14.85 11.56 15.21 11.56 15.64C11.56 16.07 11.41 16.41 11.11 16.7Z" fill="#FF24F5"/>
</svg>
